<svg xmlns="http://www.w3.org/2000/svg" viewBox="0 0 254.36 88.8"><defs><style>.cls-1{fill:#fff;}</style></defs><title>Asset 1</title><g id="Layer_2" data-name="Layer 2"><g id="Layer_1-2" data-name="Layer 1"><path class="cls-1" d="M125.84,39.11A10.1,10.1,0,0,1,129.67,43a11.7,11.7,0,0,1,1.47,5.94,11.69,11.69,0,0,1-1.47,5.94,10.09,10.09,0,0,1-8.81,5.19,9.81,9.81,0,0,1-7.26-3.19v1.09a1.78,1.78,0,0,1-.57,1.34,1.93,1.93,0,0,1-1.38.55,1.86,1.86,0,0,1-1.36-.55,1.81,1.81,0,0,1-.55-1.34V30.68a1.89,1.89,0,0,1,.55-1.37,1.82,1.82,0,0,1,1.36-.57,1.91,1.91,0,0,1,1.4.55,1.87,1.87,0,0,1,.55,1.39V41a9.81,9.81,0,0,1,7.26-3.19A10,10,0,0,1,125.84,39.11Zm-.49,15.4a7.7,7.7,0,0,0,1.91-5.59,7.71,7.71,0,0,0-1.91-5.59,6.71,6.71,0,0,0-5.05-2,8.1,8.1,0,0,0-3.67.86,10.49,10.49,0,0,0-3,2.29v8.82a10.46,10.46,0,0,0,3,2.29,8.09,8.09,0,0,0,3.67.86A6.71,6.71,0,0,0,125.36,54.5Z"/><path class="cls-1" d="M138.17,29.3a1.87,1.87,0,0,1,.55,1.39V57.95a1.78,1.78,0,0,1-.57,1.34,1.93,1.93,0,0,1-1.38.55,1.86,1.86,0,0,1-1.36-.55,1.81,1.81,0,0,1-.55-1.34V30.68a1.89,1.89,0,0,1,.55-1.37,1.82,1.82,0,0,1,1.36-.57A1.91,1.91,0,0,1,138.17,29.3Z"/><path class="cls-1" d="M159,39.17a9.61,9.61,0,0,1,3.82,3.93,13.13,13.13,0,0,1,0,11.64A9.61,9.61,0,0,1,159,58.66a12.46,12.46,0,0,1-11.43,0,9.46,9.46,0,0,1-3.8-3.93,13.32,13.32,0,0,1,0-11.64,9.47,9.47,0,0,1,3.8-3.93,12.46,12.46,0,0,1,11.43,0Zm-2.36,16.6a6.45,6.45,0,0,0,2.63-2.52,8.33,8.33,0,0,0,1-4.37,8.25,8.25,0,0,0-1-4.33,6.32,6.32,0,0,0-2.63-2.5,7.51,7.51,0,0,0-3.33-.78A7.6,7.6,0,0,0,150,42a6.19,6.19,0,0,0-2.61,2.5,8.38,8.38,0,0,0-1,4.33,8.47,8.47,0,0,0,1,4.37A6.32,6.32,0,0,0,150,55.76a7.43,7.43,0,0,0,3.38.8A7.35,7.35,0,0,0,156.66,55.76Z"/><path class="cls-1" d="M185.13,55.41a1.66,1.66,0,0,1-.36,2.63,14.75,14.75,0,0,1-3,1.45,11.89,11.89,0,0,1-3.89.57,12.08,12.08,0,0,1-5.65-1.34,10.41,10.41,0,0,1-4.14-3.87,11.08,11.08,0,0,1-1.55-5.92A11.07,11.07,0,0,1,168.05,43a10.41,10.41,0,0,1,4.14-3.87,12.08,12.08,0,0,1,5.65-1.34,11.89,11.89,0,0,1,3.89.57,14.73,14.73,0,0,1,3,1.45,1.66,1.66,0,0,1,.36,2.63A1.5,1.5,0,0,1,184,43a2,2,0,0,1-.93-.25,16.3,16.3,0,0,0-2.4-1,8.36,8.36,0,0,0-2.48-.32,7.75,7.75,0,0,0-5.73,2.08,7.41,7.41,0,0,0-2.08,5.48,7.41,7.41,0,0,0,2.08,5.48,7.75,7.75,0,0,0,5.73,2.08,8.36,8.36,0,0,0,2.48-.32,16.23,16.23,0,0,0,2.4-1,2,2,0,0,1,.93-.25A1.5,1.5,0,0,1,185.13,55.41Z"/><path class="cls-1" d="M204.85,39.11A10.09,10.09,0,0,1,208.67,43a11.7,11.7,0,0,1,1.47,5.94,11.69,11.69,0,0,1-1.47,5.94,10.09,10.09,0,0,1-8.81,5.19,9.81,9.81,0,0,1-7.26-3.19v1.09a1.78,1.78,0,0,1-.57,1.34,1.93,1.93,0,0,1-1.38.55,1.86,1.86,0,0,1-1.36-.55,1.82,1.82,0,0,1-.55-1.34V30.68a1.89,1.89,0,0,1,.55-1.37,1.82,1.82,0,0,1,1.36-.57,1.91,1.91,0,0,1,1.4.55,1.87,1.87,0,0,1,.55,1.39V41a9.81,9.81,0,0,1,7.26-3.19A10,10,0,0,1,204.85,39.11Zm-.49,15.4a7.71,7.71,0,0,0,1.91-5.59,7.71,7.71,0,0,0-1.91-5.59,6.72,6.72,0,0,0-5.05-2,8.1,8.1,0,0,0-3.67.86,10.49,10.49,0,0,0-3,2.29v8.82a10.46,10.46,0,0,0,3,2.29,8.09,8.09,0,0,0,3.67.86A6.71,6.71,0,0,0,204.36,54.5Z"/><path class="cls-1" d="M229,39.17a9.61,9.61,0,0,1,3.82,3.93,13.13,13.13,0,0,1,0,11.64A9.61,9.61,0,0,1,229,58.66a12.46,12.46,0,0,1-11.43,0,9.47,9.47,0,0,1-3.8-3.93,13.32,13.32,0,0,1,0-11.64,9.47,9.47,0,0,1,3.8-3.93,12.46,12.46,0,0,1,11.43,0Zm-2.36,16.6a6.45,6.45,0,0,0,2.63-2.52,8.34,8.34,0,0,0,1-4.37,8.25,8.25,0,0,0-1-4.33,6.32,6.32,0,0,0-2.63-2.5,7.51,7.51,0,0,0-3.33-.78A7.6,7.6,0,0,0,220,42a6.19,6.19,0,0,0-2.61,2.5,8.38,8.38,0,0,0-1,4.33,8.47,8.47,0,0,0,1,4.37A6.32,6.32,0,0,0,220,55.76a7.43,7.43,0,0,0,3.38.8A7.35,7.35,0,0,0,226.69,55.76Z"/><path class="cls-1" d="M254.32,57.91a2,2,0,0,1-.51,1.37,1.84,1.84,0,0,1-1.44.57,1.75,1.75,0,0,1-1.49-.76l-6-7.14L239.16,59a2,2,0,0,1-1.66.84,1.74,1.74,0,0,1-1.34-.53,2,2,0,0,1-.49-1.41,1.88,1.88,0,0,1,.42-1.18L242.68,49,236.1,41.1a1.94,1.94,0,0,1-.47-1.22,1.8,1.8,0,0,1,.55-1.37,1.9,1.9,0,0,1,1.36-.53,1.76,1.76,0,0,1,1.53.71L245,46l5.9-7.27a1.71,1.71,0,0,1,1.49-.71,2,2,0,0,1,1.4.53,1.7,1.7,0,0,1,.55,1.28,1.88,1.88,0,0,1-.42,1.18l-6.71,7.81,6.63,7.9A1.73,1.73,0,0,1,254.32,57.91Z"/><path class="cls-1" d="M54.28,34.29A17.51,17.51,0,0,1,60.9,41,20.28,20.28,0,0,1,63.44,51.3,20.27,20.27,0,0,1,60.9,61.6a17.49,17.49,0,0,1-15.28,9A17,17,0,0,1,33,65.06V67a3.09,3.09,0,0,1-1,2.33,3.35,3.35,0,0,1-2.39.95,3.22,3.22,0,0,1-2.36-.95,3.15,3.15,0,0,1-1-2.33V19.68a3.27,3.27,0,0,1,1-2.37,3.16,3.16,0,0,1,2.36-1,3.31,3.31,0,0,1,2.43.95,3.24,3.24,0,0,1,1,2.4V37.53A17,17,0,0,1,45.62,32,17.41,17.41,0,0,1,54.28,34.29ZM53.43,61q3.31-3.42,3.31-9.69t-3.31-9.69a11.64,11.64,0,0,0-8.76-3.42,14,14,0,0,0-6.37,1.49,18.18,18.18,0,0,0-5.27,4v15.3a18.14,18.14,0,0,0,5.27,4,14,14,0,0,0,6.37,1.49A11.64,11.64,0,0,0,53.43,61Z"/><path class="cls-1" d="M82.13,88.8H7.64A7.61,7.61,0,0,1,0,81.24V7.56A7.61,7.61,0,0,1,7.64,0H82.13a7.61,7.61,0,0,1,7.64,7.56V81.24A7.61,7.61,0,0,1,82.13,88.8ZM7.64,3.78A3.8,3.8,0,0,0,3.82,7.56V81.24A3.8,3.8,0,0,0,7.64,85H82.13A3.8,3.8,0,0,0,86,81.24V7.56a3.8,3.8,0,0,0-3.82-3.78Z"/></g></g></svg>